<mxfile host="app.diagrams.net" modified="2023-05-16T18:21:42.210Z" agent="Mozilla/5.0 (Windows NT 10.0; Win64; x64) AppleWebKit/537.36 (KHTML, like Gecko) Chrome/113.0.0.0 Safari/537.36" etag="BULw-xjQgWq2tyAUEZ4U" version="21.2.7" type="device">
  <diagram name="Seite-1" id="-KgR4xm3pqSRjlYRqOkx">
    <mxGraphModel dx="1377" dy="1244" grid="1" gridSize="10" guides="1" tooltips="1" connect="1" arrows="1" fold="1" page="1" pageScale="1" pageWidth="827" pageHeight="1169" math="0" shadow="0">
      <root>
        <mxCell id="0" />
        <mxCell id="1" parent="0" />
        <mxCell id="RWu8CKzk7oUmhehlpUdB-2" value="Localhost" style="rounded=0;whiteSpace=wrap;html=1;verticalAlign=top;" vertex="1" parent="1">
          <mxGeometry x="40" y="120" width="750" height="650" as="geometry" />
        </mxCell>
        <mxCell id="RWu8CKzk7oUmhehlpUdB-6" value="port: 8081" style="edgeStyle=orthogonalEdgeStyle;rounded=0;orthogonalLoop=1;jettySize=auto;html=1;entryX=0.5;entryY=0;entryDx=0;entryDy=0;exitX=0.25;exitY=1;exitDx=0;exitDy=0;" edge="1" parent="1" source="RWu8CKzk7oUmhehlpUdB-3" target="RWu8CKzk7oUmhehlpUdB-4">
          <mxGeometry relative="1" as="geometry" />
        </mxCell>
        <mxCell id="RWu8CKzk7oUmhehlpUdB-7" value="port: 8082" style="edgeStyle=orthogonalEdgeStyle;rounded=0;orthogonalLoop=1;jettySize=auto;html=1;entryX=0.5;entryY=0;entryDx=0;entryDy=0;exitX=0.75;exitY=1;exitDx=0;exitDy=0;" edge="1" parent="1" source="RWu8CKzk7oUmhehlpUdB-3" target="RWu8CKzk7oUmhehlpUdB-5">
          <mxGeometry relative="1" as="geometry" />
        </mxCell>
        <mxCell id="RWu8CKzk7oUmhehlpUdB-3" value="Config-Server&lt;br&gt;port: 8088" style="rounded=0;whiteSpace=wrap;html=1;fillColor=#ffe6cc;strokeColor=#d79b00;" vertex="1" parent="1">
          <mxGeometry x="230" y="260" width="390" height="60" as="geometry" />
        </mxCell>
        <mxCell id="RWu8CKzk7oUmhehlpUdB-4" value="eventservice&lt;br&gt;8081" style="rounded=0;whiteSpace=wrap;html=1;fillColor=#d5e8d4;strokeColor=#82b366;" vertex="1" parent="1">
          <mxGeometry x="130" y="430" width="180" height="170" as="geometry" />
        </mxCell>
        <mxCell id="RWu8CKzk7oUmhehlpUdB-5" value="participant-service&lt;br&gt;8082" style="rounded=0;whiteSpace=wrap;html=1;fillColor=#d5e8d4;strokeColor=#82b366;" vertex="1" parent="1">
          <mxGeometry x="490" y="430" width="180" height="170" as="geometry" />
        </mxCell>
        <mxCell id="RWu8CKzk7oUmhehlpUdB-9" style="edgeStyle=orthogonalEdgeStyle;rounded=0;orthogonalLoop=1;jettySize=auto;html=1;entryX=0.25;entryY=0;entryDx=0;entryDy=0;" edge="1" parent="1" source="RWu8CKzk7oUmhehlpUdB-8" target="RWu8CKzk7oUmhehlpUdB-3">
          <mxGeometry relative="1" as="geometry" />
        </mxCell>
        <mxCell id="RWu8CKzk7oUmhehlpUdB-8" value="EUREKA&lt;br&gt;Service-registry&lt;br&gt;&lt;br&gt;Port: 8761" style="rounded=0;whiteSpace=wrap;html=1;fillColor=#dae8fc;strokeColor=#6c8ebf;" vertex="1" parent="1">
          <mxGeometry x="100" y="140" width="220" height="60" as="geometry" />
        </mxCell>
        <mxCell id="RWu8CKzk7oUmhehlpUdB-10" value="API-Gateway" style="rounded=0;whiteSpace=wrap;html=1;verticalAlign=top;fontStyle=1;fillColor=#f5f5f5;fontColor=#333333;strokeColor=#666666;" vertex="1" parent="1">
          <mxGeometry x="140" y="800" width="520" height="130" as="geometry" />
        </mxCell>
      </root>
    </mxGraphModel>
  </diagram>
</mxfile>
